<mxfile host="app.diagrams.net" modified="2024-03-25T13:53:00.429Z" agent="5.0 (Macintosh; Intel Mac OS X 10_15_7) AppleWebKit/537.36 (KHTML, like Gecko) Chrome/122.0.0.0 Safari/537.36" etag="BLe8s_-END0ZcpDhWQjn" version="20.8.16" type="github">
  <diagram name="第 1 页" id="N6zmMHDlcr1In_9QKwPw">
    <mxGraphModel dx="1306" dy="826" grid="1" gridSize="10" guides="1" tooltips="1" connect="1" arrows="1" fold="1" page="1" pageScale="1" pageWidth="827" pageHeight="1169" math="0" shadow="0">
      <root>
        <mxCell id="0" />
        <mxCell id="1" parent="0" />
        <mxCell id="GOByTxy2mEfGFi2dCHte-2" style="edgeStyle=none;rounded=1;orthogonalLoop=1;jettySize=auto;html=1;exitX=1;exitY=0.5;exitDx=0;exitDy=0;fontSize=20;startArrow=none;startFill=0;endArrow=classic;endFill=1;labelBackgroundColor=none;fontColor=default;shape=flexArrow;" edge="1" parent="1" source="GOByTxy2mEfGFi2dCHte-3">
          <mxGeometry relative="1" as="geometry">
            <mxPoint x="270" y="270" as="targetPoint" />
          </mxGeometry>
        </mxCell>
        <mxCell id="GOByTxy2mEfGFi2dCHte-3" value="" style="rounded=1;whiteSpace=wrap;html=1;fontSize=20;labelBackgroundColor=none;" vertex="1" parent="1">
          <mxGeometry x="80" y="240" width="120" height="60" as="geometry" />
        </mxCell>
        <mxCell id="GOByTxy2mEfGFi2dCHte-4" value="" style="edgeStyle=none;rounded=1;orthogonalLoop=1;jettySize=auto;html=1;exitX=0.5;exitY=1;exitDx=0;exitDy=0;fontSize=20;startArrow=none;startFill=0;endArrow=classic;endFill=1;labelBackgroundColor=none;fontColor=default;shape=flexArrow;" edge="1" parent="1" source="GOByTxy2mEfGFi2dCHte-8">
          <mxGeometry relative="1" as="geometry">
            <mxPoint x="330" y="360" as="targetPoint" />
          </mxGeometry>
        </mxCell>
        <mxCell id="GOByTxy2mEfGFi2dCHte-5" style="edgeStyle=none;rounded=1;orthogonalLoop=1;jettySize=auto;html=1;exitX=1;exitY=0.5;exitDx=0;exitDy=0;fontSize=20;startArrow=none;startFill=0;endArrow=classic;endFill=1;entryX=0.163;entryY=0.7;entryDx=0;entryDy=0;labelBackgroundColor=none;fontColor=default;shape=flexArrow;entryPerimeter=0;" edge="1" parent="1" source="GOByTxy2mEfGFi2dCHte-8" target="GOByTxy2mEfGFi2dCHte-10">
          <mxGeometry relative="1" as="geometry">
            <mxPoint x="560" y="190" as="targetPoint" />
          </mxGeometry>
        </mxCell>
        <mxCell id="GOByTxy2mEfGFi2dCHte-7" style="edgeStyle=none;rounded=1;orthogonalLoop=1;jettySize=auto;html=1;entryX=0;entryY=0.5;entryDx=0;entryDy=0;fontSize=20;startArrow=none;startFill=0;endArrow=classic;endFill=1;exitX=1;exitY=0.5;exitDx=0;exitDy=0;labelBackgroundColor=none;fontColor=default;shape=flexArrow;" edge="1" parent="1" source="GOByTxy2mEfGFi2dCHte-8" target="GOByTxy2mEfGFi2dCHte-12">
          <mxGeometry relative="1" as="geometry" />
        </mxCell>
        <mxCell id="GOByTxy2mEfGFi2dCHte-8" value="平行四边形" style="rounded=1;whiteSpace=wrap;html=1;fontSize=20;labelBackgroundColor=none;" vertex="1" parent="1">
          <mxGeometry x="270" y="240" width="120" height="60" as="geometry" />
        </mxCell>
        <mxCell id="GOByTxy2mEfGFi2dCHte-9" style="edgeStyle=none;rounded=1;orthogonalLoop=1;jettySize=auto;html=1;entryX=0;entryY=0.5;entryDx=0;entryDy=0;fontSize=20;startArrow=none;startFill=0;endArrow=classic;endFill=1;labelBackgroundColor=none;fontColor=default;shape=flexArrow;exitX=0.913;exitY=0.6;exitDx=0;exitDy=0;exitPerimeter=0;" edge="1" parent="1" source="GOByTxy2mEfGFi2dCHte-10" target="GOByTxy2mEfGFi2dCHte-13">
          <mxGeometry relative="1" as="geometry" />
        </mxCell>
        <mxCell id="GOByTxy2mEfGFi2dCHte-10" value="" style="rhombus;whiteSpace=wrap;html=1;fontSize=20;direction=east;rounded=0;labelBackgroundColor=none;" vertex="1" parent="1">
          <mxGeometry x="477" y="130" width="80" height="100" as="geometry" />
        </mxCell>
        <mxCell id="GOByTxy2mEfGFi2dCHte-11" style="edgeStyle=none;rounded=1;orthogonalLoop=1;jettySize=auto;html=1;entryX=0;entryY=0.5;entryDx=0;entryDy=0;fontSize=20;startArrow=none;startFill=0;endArrow=classic;endFill=1;exitX=1;exitY=0.5;exitDx=0;exitDy=0;labelBackgroundColor=none;fontColor=default;shape=flexArrow;" edge="1" parent="1" source="GOByTxy2mEfGFi2dCHte-12" target="GOByTxy2mEfGFi2dCHte-13">
          <mxGeometry relative="1" as="geometry" />
        </mxCell>
        <mxCell id="GOByTxy2mEfGFi2dCHte-12" value="" style="rounded=1;whiteSpace=wrap;html=1;fontSize=20;labelBackgroundColor=none;" vertex="1" parent="1">
          <mxGeometry x="469.5" y="320" width="95" height="47.5" as="geometry" />
        </mxCell>
        <mxCell id="GOByTxy2mEfGFi2dCHte-13" value="正方形" style="text;html=1;strokeColor=none;fillColor=none;align=center;verticalAlign=middle;whiteSpace=wrap;rounded=1;fontSize=20;labelBackgroundColor=none;" vertex="1" parent="1">
          <mxGeometry x="650" y="240" width="80" height="30" as="geometry" />
        </mxCell>
        <mxCell id="GOByTxy2mEfGFi2dCHte-14" value="&lt;font style=&quot;font-size: 20px;&quot;&gt;边&lt;/font&gt;" style="text;html=1;strokeColor=none;fillColor=none;align=center;verticalAlign=middle;whiteSpace=wrap;rounded=0;" vertex="1" parent="1">
          <mxGeometry x="390" y="200" width="60" height="30" as="geometry" />
        </mxCell>
        <mxCell id="GOByTxy2mEfGFi2dCHte-15" value="性质" style="text;html=1;strokeColor=none;fillColor=none;align=center;verticalAlign=middle;whiteSpace=wrap;rounded=0;fontSize=20;" vertex="1" parent="1">
          <mxGeometry x="330" y="310" width="60" height="30" as="geometry" />
        </mxCell>
      </root>
    </mxGraphModel>
  </diagram>
</mxfile>
